<svg width="64" height="64" viewBox="0 0 64 64" fill="none" xmlns="http://www.w3.org/2000/svg">
<path d="M14.6623 8.32914C15.2636 6.30512 17.0919 4.41212 19.8355 2.9205C22.5562 1.44135 26.0438 0.434398 29.699 0.111926C36.0833 -0.451316 42.6517 1.08036 46.5561 5.40868C39.7138 4.03834 31.8367 5.13564 26.985 12.1566C22.8295 18.1702 22.2224 25.2502 24.8234 31.3397C26.7636 35.882 30.4635 39.8198 35.7056 42.3571C28.9976 41.3863 23.3753 37.3501 19.4843 31.9327C14.4655 24.9448 12.4406 15.8069 14.6623 8.32914Z" fill="#FF9999"/>
<path d="M52.5508 34.1221C50.6022 40.1241 46.235 47.0366 37.4525 51.372C30.97 54.572 24.0156 53.3898 17.9335 50.6117C11.9 47.8558 6.88328 43.5949 4.35907 40.851C4.18485 40.5793 3.99617 40.3073 3.79523 40.0177C2.97506 38.8354 1.9508 37.3589 0.873188 34.4073C-0.323948 31.1283 -1.07482 23.7061 4.08137 17.3319C4.05897 19.4846 4.26688 21.4152 4.41314 22.7732C4.44537 23.0725 4.4746 23.3439 4.49772 23.5838C4.74668 26.1675 6.4702 32.1616 10.4787 37.5093C14.5183 42.8987 20.9359 47.6972 30.5306 47.6166C35.0731 47.5784 39.0054 46.2847 42.3285 44.3298C46.5365 41.9863 50.0052 38.1701 52.5508 34.1221Z" fill="#FF9999"/>
<path d="M7.72101 54.7806C5.98195 52.675 4.88578 49.5335 4.62827 44.0465C7.53981 46.786 11.9511 50.1503 17.0813 52.4936C23.4584 55.4064 31.1073 56.8079 38.3606 53.2274C52.2619 46.3651 55.8314 33.4333 55.9643 26.517C55.9753 25.9449 55.9785 25.3702 55.9168 24.7914C57.6644 29.6534 57.9096 36.4788 53.9658 45.3905C47.7479 59.4412 34.3841 61.7416 25.406 61.4104C19.5037 61.0151 12.0547 59.4604 7.72101 54.7806Z" fill="#FF9999"/>
<path d="M57.9887 24.4787C56.1825 19.1325 52.6747 15.693 49.9001 14.1416C47.4005 12.505 44.0882 11.7673 39.8333 12.6247C41.6866 11.7021 43.7073 11.2022 45.8889 11.3667C51.6378 12.0486 55.3378 13.5863 57.8526 15.6028C58.7552 16.3266 59.5182 17.1225 60.1749 17.9822C61.2901 19.6161 62.1866 21.2729 62.8619 23.1415C65.0786 29.2755 63.7548 36.1705 61.4749 41.9891C56.732 54.0928 44.8265 67.0584 30.5599 63.3571C39.4033 62.6113 50.2787 58.8126 55.8469 46.2302C59.8742 37.1299 59.8121 29.8757 57.9887 24.4787Z" fill="#FF9999"/>
<path fill-rule="evenodd" clip-rule="evenodd" d="M12.6897 7.73801C13.1232 6.27897 13.9859 4.96353 15.1419 3.80836C13.2061 4.36351 11.6986 5.17737 10.5217 6.14244C8.64481 7.68146 7.53022 9.66959 6.89276 11.8066C5.73389 15.6916 6.18171 19.9174 6.45934 22.5372C6.49169 22.8425 6.52174 23.126 6.54666 23.3846C6.75922 25.5906 8.34337 31.2232 12.1233 36.266C15.872 41.2672 21.7236 45.6232 30.5134 45.5493C32.7635 45.5304 34.8534 45.174 36.7839 44.5628C28.8289 43.8835 22.2258 39.2836 17.8148 33.1421C12.496 25.7366 10.2521 15.9427 12.6897 7.73801ZM32.7433 18.6951C32.3266 19.2046 31.927 19.7204 31.5446 20.2354C30.9809 21.0902 30.5192 22.0188 30.1716 23.0068C31.1402 22.1633 32.0739 21.5385 33.1094 21.1087C34.9801 20.3321 37.0626 20.2415 40.0263 20.3655C44.0681 20.5347 46.4787 21.9806 48.5952 23.258C50.3228 24.3008 51.7937 25.1885 53.8956 25.4102C53.7463 21.8119 51.828 17.887 48.8029 15.8911C46.5906 14.4316 43.4133 13.7261 38.8714 14.9788C36.4274 15.6528 34.3342 16.9517 32.7433 18.6951ZM27.3354 31.8269C27.0353 26.6512 27.5567 21.3521 31.1853 17.3427C34.6469 13.121 39.6442 8.81075 46.0671 9.30695C49.7361 9.59033 53.6352 10.6295 56.8523 12.4469C54.8009 10.668 51.9219 9.0725 48.759 8.09779C41.752 5.93839 33.4587 6.41452 28.6761 13.3354C24.908 18.7884 24.2221 25.9195 27.3354 31.8269ZM46.896 38.0564C45.3795 39.6414 43.636 41.1107 41.6636 42.3207C34.9818 40.6321 29.6712 37.4554 29.3163 30.2174C30.2224 29.5752 31.1989 29.2378 32.2931 29.0696C34.0384 28.8013 36.0858 28.9925 38.0279 30.2927C39.7011 31.413 40.8074 32.4718 41.8541 33.4735C43.133 34.6974 44.4399 35.9329 46.1046 36.6057C46.6227 36.8151 47.1771 36.9771 47.7826 37.0881C47.4967 37.4143 47.2012 37.7375 46.896 38.0564Z" fill="#FF9999"/>
<path d="M39.1697 28.5726C36.709 26.9251 34.1145 26.6982 31.9816 27.0261C31.0419 27.1705 30.1141 27.4049 29.2622 27.8362C29.2981 27.3538 29.3591 26.9299 29.4024 26.6725L29.4026 26.6712C31.2866 24.6398 32.5248 23.5884 33.8958 23.0193C35.3149 22.4301 36.9967 22.3079 39.9406 22.4311C43.48 22.5792 45.5169 23.8104 47.5989 25.0688L47.612 25.0767C49.2951 26.094 51.0573 27.1592 53.5602 27.4522C52.8041 29.5986 51.3944 32.414 49.3234 35.1845C48.319 35.1365 47.5355 34.9555 46.8731 34.6878C45.5691 34.1608 44.5411 33.1795 43.5372 32.2213L43.4392 32.1277C42.3356 31.0751 40.9886 29.7904 39.1697 28.5726Z" fill="#FF9999"/>
</svg>
