<svg width="333" height="361" viewBox="0 0 333 361" fill="none" xmlns="http://www.w3.org/2000/svg">
<path d="M134.149 261.698C133.063 261.698 132.302 261.318 131.868 260.559C131.433 259.8 131.216 258.986 131.216 258.119C131.325 256.275 131.759 255.245 132.52 255.028C133.28 254.811 134.203 254.703 135.29 254.703C138.223 254.703 140.449 254.106 141.97 252.913C143.491 251.72 144.686 250.148 145.555 248.196C146.533 246.244 147.456 244.237 148.325 242.177L176.84 174.83C177.926 172.227 178.143 170.275 177.492 168.974C176.84 167.564 175.753 166.588 174.233 166.046C172.712 165.395 171.028 164.907 169.182 164.582C167.552 164.256 166.466 163.985 165.923 163.768C165.38 163.443 165.108 162.467 165.108 160.84C165.108 158.996 165.76 158.02 167.063 157.912C168.367 157.695 169.888 157.587 171.626 157.587C176.079 157.587 179.881 158.02 183.032 158.888C186.182 159.756 188.897 161.437 191.179 163.931C193.46 166.317 195.578 169.95 197.533 174.83L224.908 242.177C225.668 244.02 226.483 245.918 227.352 247.87C228.221 249.822 229.361 251.449 230.773 252.751C232.294 253.944 234.195 254.594 236.476 254.703C237.671 254.703 238.595 254.811 239.246 255.028C240.007 255.245 240.441 256.275 240.55 258.119C240.55 258.986 240.278 259.8 239.735 260.559C239.301 261.318 238.595 261.698 237.617 261.698C234.141 261.481 231.099 261.318 228.492 261.21C225.885 261.21 222.952 261.21 219.693 261.21C213.284 261.21 206.549 261.372 199.489 261.698C198.402 261.698 197.642 261.318 197.207 260.559C196.773 259.8 196.556 258.986 196.556 258.119C196.664 256.275 197.099 255.245 197.859 255.028C198.62 254.811 199.543 254.703 200.629 254.703C205.952 254.703 208.831 253.727 209.265 251.775C209.808 249.822 209.319 246.623 207.799 242.177L202.259 228.675H162.012C160.383 232.796 159.188 235.778 158.427 237.622C157.776 239.466 157.341 240.659 157.124 241.201C157.015 241.743 156.907 242.068 156.798 242.177C155.603 245.864 154.951 248.63 154.843 250.473C154.843 252.208 155.712 253.347 157.45 253.889C159.296 254.432 162.338 254.703 166.574 254.703C167.769 254.703 168.693 254.811 169.344 255.028C170.105 255.245 170.539 256.275 170.648 258.119C170.648 258.986 170.376 259.8 169.833 260.559C169.399 261.318 168.693 261.698 167.715 261.698C164.239 261.481 161.197 261.318 158.59 261.21C156.092 261.21 153.213 261.21 149.954 261.21C147.782 261.21 145.935 261.21 144.414 261.21C143.002 261.318 141.536 261.372 140.015 261.372C138.494 261.481 136.539 261.589 134.149 261.698ZM165.108 221.68H199.326L182.869 179.873H182.38L165.108 221.68Z" fill="#FF99AA"/>
<path fill-rule="evenodd" clip-rule="evenodd" d="M32.3619 261.698C31.3842 261.698 30.6782 261.318 30.2436 260.559C29.8091 259.8 29.5919 258.986 29.5919 258.119C29.7005 256.275 30.135 255.245 30.8954 255.028C31.6558 254.811 32.5791 254.703 33.6654 254.703C37.1415 254.703 39.5856 254.106 40.9978 252.913C42.41 251.612 43.279 250.039 43.6049 248.196C44.0394 246.244 44.2566 244.237 44.2566 242.177V177.595C44.2566 175.535 44.0394 173.583 43.6049 171.739C43.279 169.787 41.988 167.378 41.2317 166.697C40.4754 166.016 39.383 165.355 36.318 164.948C33.253 164.54 24.3106 165.58 18.6284 167.819C18.0958 168.029 17.5928 168.226 17.1162 168.413C12.7596 170.121 10.5983 170.968 8.06476 172.818C6.69547 174.056 5.98396 175.294 5.93023 176.529C5.87651 177.765 6.22075 178.889 6.96292 179.902C8.27599 181.695 10.2347 182.897 12.839 183.508C15.3652 184.176 17.867 183.666 20.3445 181.977C21.378 182.897 21.8049 184.38 21.6253 186.425C21.4456 188.47 20.1066 190.404 17.6081 192.228C16.7493 192.855 15.4278 193.341 13.6438 193.687C11.8597 194.032 9.97492 193.913 7.98937 193.328C5.94674 192.666 4.09762 191.205 2.44201 188.944C0.67222 186.528 -0.135035 183.708 0.0202547 180.484C0.0974711 177.318 0.928582 174.199 2.51363 171.128C3.96351 168.036 5.90914 165.539 8.35054 163.637C12.3325 160.73 16.2246 158.846 20.0269 157.985C23.7512 157.18 27.5371 156.868 31.3848 157.05C35.2325 157.232 34.7511 157.435 38.8691 157.659C42.051 157.832 50.6949 158.34 54.4606 158.563H77.1709C87.5991 158.563 97.0498 160.623 105.523 164.744C113.996 168.865 120.731 174.776 125.728 182.476C130.724 190.176 133.223 199.502 133.223 210.455C133.223 219.131 131.539 226.669 128.172 233.067C124.804 239.466 120.296 244.78 114.647 249.009C108.999 253.13 102.644 256.221 95.5833 258.281C88.6311 260.234 81.516 261.21 74.2379 261.21H51.752H42.3013C39.2597 261.318 35.9466 261.481 32.3619 261.698ZM98.0274 249.66C92.596 253.347 85.4809 255.191 76.682 255.191C71.142 255.191 67.0142 254.432 64.2985 252.913C61.6914 251.395 60.3879 248.467 60.3879 244.129V164.582H66.2538C69.0781 164.473 71.3593 164.419 73.0973 164.419C81.6789 164.419 88.957 166.425 94.9315 170.438C101.015 174.342 105.631 179.764 108.782 186.705C111.932 193.646 113.507 201.563 113.507 210.455C113.507 219.348 112.258 227.157 109.759 233.88C107.369 240.604 103.459 245.864 98.0274 249.66Z" fill="#FF99AA"/>
<path d="M255.144 261.698C254.058 261.698 253.298 261.318 252.863 260.559C252.428 259.8 252.211 258.986 252.211 258.119C252.32 256.275 252.754 255.245 253.515 255.028C254.275 254.811 255.199 254.703 256.285 254.703C259.761 254.703 262.205 254.106 263.617 252.913C265.029 251.612 265.898 250.039 266.224 248.196C266.659 246.244 266.876 244.237 266.876 242.177V221.843C266.876 221.083 266.279 219.348 265.084 216.637C263.997 213.817 262.531 210.564 260.684 206.877C258.946 203.189 257.099 199.394 255.144 195.49C253.189 191.585 251.342 188.061 249.604 184.916C247.975 181.662 246.671 179.168 245.694 177.433C243.412 173.312 240.914 170.384 238.198 168.648C235.483 166.805 232.387 165.503 228.911 164.744C227.39 164.419 226.303 164.148 225.652 163.931C225.109 163.714 224.837 162.738 224.837 161.003C224.837 159.159 225.489 158.183 226.792 158.075C228.096 157.858 229.617 157.749 231.355 157.749C239.067 157.749 245.259 158.942 249.93 161.328C254.71 163.714 258.946 168.16 262.639 174.667C265.79 180.524 268.614 186.217 271.112 191.748C273.72 197.279 276.598 202.918 279.748 208.666H280.237L298.324 173.041C300.17 169.353 300.388 167.13 298.976 166.371C297.563 165.503 294.956 165.07 291.154 165.07C290.068 165.07 289.145 164.961 288.384 164.744C287.624 164.527 287.189 163.497 287.081 161.653C287.081 160.786 287.298 159.973 287.733 159.213C288.167 158.454 288.873 158.075 289.851 158.075C293.327 158.183 296.314 158.292 298.813 158.4C301.42 158.508 304.353 158.563 307.611 158.563C310.87 158.563 313.532 158.508 315.596 158.4C317.768 158.292 320.592 158.183 324.069 158.075C325.155 158.075 325.915 158.454 326.35 159.213C326.784 159.973 327.001 160.786 327.001 161.653C326.893 163.497 326.458 164.527 325.698 164.744C325.046 164.961 324.123 165.07 322.928 165.07C318.8 165.07 315.433 165.991 312.826 167.835C310.219 169.57 307.883 172.336 305.819 176.131L287.407 210.781C286.429 212.841 285.614 214.577 284.963 215.986C284.311 217.396 283.822 218.86 283.496 220.379C283.17 221.897 283.007 223.903 283.007 226.397V242.177C283.116 244.237 283.333 246.244 283.659 248.196C283.985 250.039 284.005 250.999 286.266 252.913C288.527 254.827 291.388 256.284 293.432 257.508C295.475 258.733 298.044 260.19 302.715 261.589C308.728 262.988 311.765 261.813 314.544 261.116C315.971 260.594 316.897 259.87 317.32 258.945C317.744 258.02 317.829 257.056 317.577 256.054C317.131 254.282 316.01 252.761 314.214 251.492C312.494 250.203 310.429 249.82 308.017 250.343C307.514 249.322 307.647 248.06 308.418 246.556C309.188 245.052 310.808 243.99 313.277 243.371C314.126 243.158 315.285 243.195 316.752 243.482C318.219 243.77 319.619 244.442 320.952 245.501C322.305 246.636 323.262 248.321 323.824 250.555C324.425 252.944 324.168 255.343 323.051 257.753C322.012 260.144 320.412 262.265 318.253 264.118C316.19 266.028 313.933 267.331 311.483 268.028C307.547 269.015 303.996 269.25 300.83 268.734C297.741 268.198 290.972 264.118 287.917 262.696C284.862 261.275 283.659 261.21 281.669 261.21H275.349C268.94 261.21 262.205 261.372 255.144 261.698Z" fill="#FF99AA"/>
<path d="M90.2588 353.474C87.0994 353.474 84.3736 352.978 82.0815 351.987C79.8514 350.996 77.7761 349.726 75.8556 348.177C73.9352 346.629 71.9529 345.018 69.9085 343.345C67.8642 341.673 65.5102 340.155 62.8463 338.792C60.864 337.801 58.5099 336.995 55.7841 336.376C53.1203 335.756 50.5185 335.013 47.9786 334.146C45.4387 333.217 43.3014 332.07 41.5668 330.708C37.9118 327.858 35.0622 324.296 33.0179 320.021C31.0355 315.747 30.0443 311.194 30.0443 306.362C30.0443 301.22 30.9116 296.667 32.6462 292.702C34.4427 288.737 36.7968 285.392 39.7084 282.666C42.62 279.94 45.8104 277.896 49.2795 276.533C52.8106 275.108 56.2797 274.396 59.6869 274.396C64.3331 274.396 68.4837 275.232 72.1387 276.905C75.8556 278.577 79.015 280.839 81.6169 283.688C84.2807 286.538 86.2941 289.79 87.6569 293.445C89.0198 297.038 89.7013 300.786 89.7013 304.689C89.7013 309.397 88.8649 313.703 87.1923 317.605C85.5816 321.508 83.3205 324.853 80.4089 327.641C77.5592 330.429 74.2759 332.566 70.559 334.053C70.2493 334.177 69.7846 334.332 69.1651 334.517C68.6076 334.641 67.8023 334.734 66.7491 334.796V334.982C68.4218 335.168 69.9395 335.602 71.3024 336.283C74.3379 337.77 77.1256 339.504 79.6655 341.487C82.2674 343.469 84.7144 345.173 87.0065 346.598C89.3605 348.084 91.6527 348.828 93.8828 348.828C95.0598 348.704 95.8962 348.332 96.3918 347.713C96.8873 347.093 97.1351 346.381 97.1351 345.575C97.1351 344.151 96.5776 342.788 95.4625 341.487C94.4094 340.186 92.9226 339.504 91.0022 339.442C90.8163 338.575 91.1571 337.646 92.0243 336.655C92.8916 335.664 94.3165 335.168 96.2988 335.168C96.9803 335.168 97.8476 335.416 98.9007 335.911C99.9538 336.407 100.883 337.181 101.688 338.234C102.494 339.349 102.896 340.805 102.896 342.602C102.896 344.522 102.246 346.288 100.945 347.898C99.706 349.509 98.0954 350.81 96.113 351.801C94.1926 352.854 92.2412 353.412 90.2588 353.474ZM59.594 332.938C62.8773 332.938 65.727 332.194 68.143 330.708C70.559 329.159 72.5414 327.053 74.0901 324.389C75.6388 321.725 76.7849 318.72 77.5283 315.375C78.2717 311.968 78.6434 308.406 78.6434 304.689C78.6434 300.043 77.9309 295.737 76.5061 291.773C75.1432 287.746 73.037 284.525 70.1873 282.109C67.3996 279.631 63.8685 278.392 59.594 278.392C55.2576 278.392 51.6955 279.693 48.9078 282.294C46.182 284.834 44.1687 288.211 42.8678 292.423C41.6288 296.574 41.0093 301.127 41.0093 306.083C41.0093 310.729 41.6598 315.096 42.9607 319.185C44.3236 323.274 46.3679 326.588 49.0937 329.128C51.8814 331.668 55.3815 332.938 59.594 332.938ZM116.399 336.004C112.186 336.004 108.841 334.734 106.363 332.194C103.885 329.654 102.646 326.309 102.646 322.159V304.968C102.646 303.853 102.584 302.831 102.46 301.901C102.398 300.91 102.057 300.136 101.438 299.578C100.818 298.959 99.6414 298.649 97.9068 298.649C97.3493 298.649 96.8227 298.587 96.3271 298.463C95.8935 298.277 95.6767 297.72 95.6767 296.79C95.6767 295.861 96.1723 295.304 97.1634 295.118C100.013 294.684 102.181 294.251 103.668 293.817C105.217 293.383 106.394 293.012 107.199 292.702C108.005 292.392 108.717 292.206 109.336 292.144C109.832 292.082 110.235 292.175 110.544 292.423C110.916 292.671 111.102 293.166 111.102 293.91V322.066C111.102 324.11 111.536 325.783 112.403 327.084C113.332 328.385 114.478 329.345 115.841 329.964C117.204 330.584 118.598 330.893 120.023 330.893C122.191 330.893 124.08 330.522 125.691 329.778C127.302 328.973 128.603 328.075 129.594 327.084C130.585 326.03 131.235 325.163 131.545 324.482V304.968C131.545 303.853 131.483 302.831 131.359 301.901C131.297 300.91 130.957 300.136 130.337 299.578C129.718 298.959 128.541 298.649 126.806 298.649C126.249 298.649 125.722 298.587 125.226 298.463C124.793 298.277 124.576 297.72 124.576 296.79C124.576 295.861 125.071 295.304 126.063 295.118C128.912 294.684 131.081 294.251 132.567 293.817C134.116 293.383 135.293 293.012 136.098 292.702C136.904 292.392 137.616 292.206 138.236 292.144C138.731 292.082 139.134 292.175 139.444 292.423C139.815 292.671 140.001 293.166 140.001 293.91V326.061C140.001 329.716 142.448 331.544 147.342 331.544C148.024 331.544 148.457 331.73 148.643 332.101C148.829 332.473 148.922 332.876 148.922 333.309C148.922 334.177 148.395 334.703 147.342 334.889L132.381 335.911C131.948 335.911 131.7 335.725 131.638 335.354C131.576 334.982 131.545 334.548 131.545 334.053V328.849H131.359C130.182 329.964 128.912 331.079 127.549 332.194C126.249 333.309 124.7 334.208 122.903 334.889C121.169 335.633 119 336.004 116.399 336.004ZM174.552 336.004C169.782 336.004 165.755 334.982 162.472 332.938C159.251 330.893 156.835 328.168 155.224 324.76C153.613 321.353 152.808 317.636 152.808 313.61C152.808 310.884 153.273 308.251 154.202 305.711C155.193 303.109 156.587 300.755 158.383 298.649C160.18 296.481 162.348 294.777 164.888 293.538C167.428 292.299 170.309 291.68 173.53 291.68C179.229 291.68 183.504 293.166 186.353 296.14C189.265 299.052 190.938 302.769 191.371 307.291C191.371 309.459 190.752 310.884 189.513 311.565C188.336 312.247 186.787 312.588 184.867 312.588H162.286C162.286 316.181 162.782 319.402 163.773 322.252C164.764 325.039 166.313 327.269 168.419 328.942C170.587 330.553 173.437 331.358 176.968 331.358C179.57 331.358 181.8 330.801 183.659 329.685C185.517 328.57 187.314 326.619 189.048 323.831C189.544 323.212 190.225 323.181 191.092 323.738C191.588 323.986 191.898 324.389 192.022 324.946C192.146 325.442 192.084 325.876 191.836 326.247C189.915 329.283 187.499 331.668 184.588 333.402C181.676 335.137 178.331 336.004 174.552 336.004ZM162.286 309.056H177.433C178.92 309.056 180.097 308.778 180.964 308.22C181.893 307.601 182.389 306.578 182.451 305.154C182.451 302.49 181.707 300.136 180.22 298.091C178.796 295.985 176.565 294.932 173.53 294.932C170.432 294.932 167.831 296.171 165.724 298.649C163.68 301.127 162.534 304.596 162.286 309.056ZM199.583 335.168C199.026 335.168 198.623 334.951 198.375 334.517C198.128 334.084 198.004 333.619 198.004 333.124C198.066 332.07 198.313 331.482 198.747 331.358C199.181 331.234 199.707 331.172 200.327 331.172C202.309 331.172 203.703 330.831 204.508 330.15C205.314 329.407 205.809 328.508 205.995 327.455C206.243 326.34 206.367 325.194 206.367 324.017V287.126C206.367 285.949 206.243 284.834 205.995 283.781C205.809 282.666 205.314 281.768 204.508 281.086C203.703 280.343 202.309 279.971 200.327 279.971C199.707 279.971 199.181 279.909 198.747 279.785C198.313 279.662 198.066 279.073 198.004 278.02C198.004 277.524 198.128 277.06 198.375 276.626C198.623 276.192 199.026 275.976 199.583 275.976C201.566 276.038 203.424 276.1 205.159 276.161C206.955 276.223 208.783 276.254 210.641 276.254H237.496C238.178 276.254 238.735 276.409 239.169 276.719C239.664 277.029 239.912 277.617 239.912 278.485L240.191 291.494C240.191 292.113 239.881 292.578 239.262 292.888C238.704 293.197 238.178 293.352 237.682 293.352C237.001 293.352 236.35 293.228 235.731 292.981C235.173 292.671 234.832 292.237 234.708 291.68C234.337 288.892 233.841 286.662 233.222 284.989C232.664 283.255 231.797 282.016 230.62 281.272C229.505 280.467 227.863 280.033 225.695 279.971H215.566V304.131H232.2C232.695 304.193 233.067 304.441 233.315 304.875C233.562 305.308 233.686 305.773 233.686 306.269C233.686 306.702 233.562 307.136 233.315 307.57C233.067 307.941 232.695 308.127 232.2 308.127H215.566V324.017C215.628 325.194 215.752 326.34 215.938 327.455C216.124 328.508 216.619 329.407 217.425 330.15C218.292 330.831 219.686 331.172 221.606 331.172C222.226 331.172 222.752 331.234 223.186 331.358C223.62 331.482 223.867 332.07 223.929 333.124C223.929 333.619 223.805 334.084 223.558 334.517C223.31 334.951 222.876 335.168 222.257 335.168C218.292 334.982 214.451 334.889 210.734 334.889C208.876 334.889 207.048 334.889 205.252 334.889C203.455 334.951 201.566 335.044 199.583 335.168ZM264.663 336.004C259.892 336.004 255.866 334.982 252.582 332.938C249.361 330.893 246.945 328.168 245.334 324.76C243.724 321.353 242.918 317.636 242.918 313.61C242.918 310.884 243.383 308.251 244.312 305.711C245.303 303.109 246.697 300.755 248.494 298.649C250.29 296.481 252.459 294.777 254.998 293.538C257.538 292.299 260.419 291.68 263.64 291.68C269.34 291.68 273.614 293.166 276.464 296.14C279.375 299.052 281.048 302.769 281.482 307.291C281.482 309.459 280.862 310.884 279.623 311.565C278.446 312.247 276.897 312.588 274.977 312.588H252.397C252.397 316.181 252.892 319.402 253.883 322.252C254.875 325.039 256.423 327.269 258.53 328.942C260.698 330.553 263.547 331.358 267.079 331.358C269.68 331.358 271.911 330.801 273.769 329.685C275.628 328.57 277.424 326.619 279.159 323.831C279.654 323.212 280.336 323.181 281.203 323.738C281.699 323.986 282.008 324.389 282.132 324.946C282.256 325.442 282.194 325.876 281.946 326.247C280.026 329.283 277.61 331.668 274.698 333.402C271.787 335.137 268.441 336.004 264.663 336.004ZM252.397 309.056H267.543C269.03 309.056 270.207 308.778 271.074 308.22C272.004 307.601 272.499 306.578 272.561 305.154C272.561 302.49 271.818 300.136 270.331 298.091C268.906 295.985 266.676 294.932 263.64 294.932C260.543 294.932 257.941 296.171 255.835 298.649C253.79 301.127 252.644 304.596 252.397 309.056ZM290.584 335.168C290.088 335.168 289.717 334.982 289.469 334.61C289.221 334.177 289.097 333.743 289.097 333.309C289.159 332.38 289.376 331.885 289.748 331.823C290.119 331.699 290.615 331.637 291.234 331.637C293.031 331.637 294.27 331.389 294.951 330.893C295.695 330.336 296.562 329.097 297.553 327.177L310.377 300.507C311.43 298.215 311.739 296.852 311.306 296.419C310.872 295.985 309.757 295.768 307.961 295.768H304.058C302.137 295.768 300.558 296.016 299.319 296.512C298.142 297.007 297.212 298.029 296.531 299.578C295.85 301.127 295.292 303.45 294.858 306.547C294.796 307.043 294.487 307.415 293.929 307.663C293.372 307.91 292.752 308.034 292.071 308.034C291.637 308.034 291.172 307.91 290.677 307.663C290.243 307.353 290.026 306.919 290.026 306.362L291.606 294.932C291.73 294.003 291.978 293.414 292.349 293.166C292.721 292.919 293.186 292.795 293.743 292.795H319.204C320.319 292.795 321.187 292.795 321.806 292.795C322.488 292.733 323.169 292.702 323.85 292.702C324.594 292.64 325.554 292.578 326.731 292.516C327.227 292.516 327.598 292.702 327.846 293.074C328.094 293.445 328.218 293.879 328.218 294.374C328.156 295.304 327.908 295.83 327.475 295.954C327.103 296.016 326.638 296.047 326.081 296.047C324.346 296.047 323.107 296.295 322.364 296.79C321.62 297.286 320.722 298.525 319.669 300.507L306.938 327.177C305.885 329.469 305.576 330.831 306.009 331.265C306.505 331.699 307.62 331.916 309.354 331.916H314.558C316.541 331.916 318.12 331.668 319.297 331.172C320.474 330.677 321.404 329.654 322.085 328.106C322.828 326.557 323.386 324.234 323.758 321.136C323.82 320.641 324.129 320.269 324.687 320.021C325.306 319.774 325.926 319.65 326.545 319.65C327.041 319.65 327.505 319.805 327.939 320.114C328.373 320.362 328.59 320.765 328.59 321.322L327.01 332.752C326.886 333.681 326.638 334.27 326.267 334.517C325.895 334.765 325.43 334.889 324.873 334.889H298.018C296.965 334.889 296.097 334.889 295.416 334.889C294.734 334.951 294.053 334.982 293.372 334.982C292.69 335.044 291.761 335.106 290.584 335.168Z" fill="#88CCCC"/>
<path d="M146.576 16.0385C147.703 12.2435 151.131 8.69412 156.276 5.89733C161.377 3.12391 167.916 1.23588 174.77 0.631247C186.74 -0.424831 199.056 2.44706 206.377 10.5627C193.547 7.99328 178.778 10.0507 169.681 23.2151C161.889 34.4905 160.751 47.7656 165.628 59.1833C169.266 67.7001 176.203 75.0835 186.032 79.8409C173.455 78.0206 162.913 70.4529 155.617 60.2951C146.207 47.1929 142.41 30.0593 146.576 16.0385Z" fill="#FF99AA"/>
<path d="M217.617 64.4003C213.963 75.6541 205.775 88.615 189.307 96.7439C177.153 102.744 164.113 100.527 152.709 95.3183C141.396 90.151 131.99 82.1618 127.257 77.0171C126.931 76.5076 126.577 75.9976 126.2 75.4545C124.662 73.2377 122.742 70.4692 120.721 64.935C118.477 58.787 117.069 44.8703 126.737 32.9187C126.695 36.9551 127.084 40.5749 127.359 43.1212C127.419 43.6823 127.474 44.1912 127.517 44.641C127.984 49.4855 131.216 60.7244 138.732 70.7514C146.306 80.8564 158.339 89.8537 176.329 89.7025C184.846 89.6309 192.219 87.2053 198.45 83.5397C206.34 79.1456 212.844 71.9902 217.617 64.4003Z" fill="#FF99AA"/>
<path d="M133.561 103.135C130.3 99.1871 128.245 93.2966 127.762 83.0085C133.221 88.1451 141.492 94.4532 151.111 98.8469C163.069 104.308 177.41 106.936 191.01 100.223C217.075 87.3559 223.768 63.1088 224.017 50.1407C224.038 49.0682 224.044 47.9906 223.928 46.9052C227.205 56.0216 227.665 68.8191 220.27 85.5287C208.611 111.874 183.554 116.187 166.72 115.566C155.653 114.825 141.687 111.91 133.561 103.135Z" fill="#FF99AA"/>
<path d="M227.813 46.319C224.426 36.2948 217.849 29.8457 212.647 26.9368C207.96 23.8683 201.749 22.4851 193.771 24.0926C197.246 22.3627 201.035 21.4255 205.126 21.7339C215.905 23.0125 222.842 25.8957 227.558 29.6766C229.25 31.0337 230.681 32.526 231.912 34.1381C234.003 37.2015 235.684 40.308 236.95 43.8117C241.106 55.313 238.624 68.2411 234.349 79.1509C225.457 101.845 203.134 126.156 176.384 119.216C192.965 117.818 213.357 110.695 223.797 87.103C231.348 70.0399 231.232 56.4383 227.813 46.319Z" fill="#FF99AA"/>
<path fill-rule="evenodd" clip-rule="evenodd" d="M142.877 14.9302C143.69 12.1945 145.308 9.728 147.475 7.56206C143.845 8.60297 141.019 10.129 138.812 11.9385C135.293 14.8241 133.203 18.5519 132.008 22.5587C129.835 29.8431 130.675 37.7665 131.195 42.6786C131.256 43.2511 131.312 43.7827 131.359 44.2676C131.758 48.4038 134.728 58.9648 141.815 68.4201C148.844 77.7974 159.816 85.9648 176.297 85.8263C180.516 85.7909 184.434 85.1226 188.054 83.9766C173.138 82.703 160.757 74.0782 152.487 62.5628C142.514 48.6776 138.307 30.3139 142.877 14.9302ZM180.478 35.4747C179.696 36.43 178.947 37.3972 178.23 38.3628C177.173 39.9654 176.307 41.7067 175.656 43.5591C177.472 41.9775 179.223 40.8061 181.164 40.0001C184.672 38.5441 188.576 38.3742 194.133 38.6068C201.712 38.9239 206.232 41.6349 210.2 44.0301C213.439 45.9853 216.197 47.6499 220.138 48.0655C219.858 41.3187 216.262 33.9595 210.589 30.2173C206.441 27.4806 200.484 26.1578 191.968 28.5065C187.385 29.7704 183.461 32.2058 180.478 35.4747ZM170.338 60.0968C169.775 50.3924 170.753 40.4566 177.556 32.939C184.047 25.0232 193.417 16.9415 205.46 17.8719C212.339 18.4033 219.65 20.3517 225.682 23.7594C221.836 20.424 216.437 17.4323 210.507 15.6047C197.369 11.5559 181.819 12.4486 172.852 25.4252C165.786 35.6495 164.5 49.0205 170.338 60.0968ZM207.014 71.7771C204.171 74.7489 200.901 77.5039 197.203 79.7728C184.675 76.6065 174.717 70.6502 174.052 57.079C175.751 55.8748 177.582 55.2423 179.634 54.9269C182.906 54.4239 186.745 54.7823 190.386 57.2203C193.524 59.3208 195.598 61.306 197.56 63.1842C199.958 65.479 202.409 67.7957 205.53 69.0571C206.502 69.4497 207.541 69.7535 208.676 69.9616C208.14 70.5732 207.586 71.1792 207.014 71.7771Z" fill="#FF99AA"/>
<path d="M192.527 53.995C187.913 50.9059 183.049 50.4804 179.05 51.0953C177.288 51.3661 175.548 51.8056 173.951 52.6143C174.018 51.7097 174.132 50.915 174.214 50.4322L174.214 50.4299C177.746 46.6211 180.068 44.6495 182.639 43.5825C185.299 42.4779 188.453 42.2487 193.973 42.4797C200.609 42.7574 204.428 45.0658 208.332 47.4253L208.356 47.4402C211.512 49.3476 214.816 51.3448 219.509 51.8943C218.092 55.9187 215.448 61.1976 211.565 66.3924C209.682 66.3023 208.213 65.963 206.971 65.461C204.526 64.4729 202.599 62.633 200.716 60.8363L200.532 60.6608C198.463 58.6873 195.938 56.2784 192.527 53.995Z" fill="#FF99AA"/>
</svg>
